<?xml version="1.0" encoding="UTF-8"?>
<svg version="1.1" xmlns="http://www.w3.org/2000/svg" width="64" height="64">
<path d="M0 0 C2.95203066 0.15452324 3.939621 0.53725415 5.96118164 2.73706055 C10.25110587 9.19146691 14.18458314 15.78231924 17.9375 22.5625 C19.04551625 24.54560458 20.15358781 26.52867825 21.26171875 28.51171875 C21.77404053 29.43678223 22.2863623 30.3618457 22.81420898 31.31494141 C24.05462828 33.52664635 25.33897318 35.70308764 26.640625 37.87890625 C28.25 40.875 28.25 40.875 28.3125 44.125 C27.25 46.875 27.25 46.875 25.30688477 48.52416992 C20.94192446 50.45303546 16.99864328 50.285335 12.27734375 50.23828125 C11.31727921 50.23877975 10.35721466 50.23927826 9.36805725 50.23979187 C7.34325078 50.23745626 5.31844114 50.22775808 3.29370117 50.21118164 C0.19488584 50.18755631 -2.90307039 50.19062885 -6.00195312 50.19726562 C-7.97135929 50.19168958 -9.94076184 50.18458016 -11.91015625 50.17578125 C-12.83627213 50.17669266 -13.762388 50.17760406 -14.71656799 50.17854309 C-15.5810405 50.16901108 -16.445513 50.15947906 -17.33618164 50.1496582 C-18.47271935 50.14274712 -18.47271935 50.14274712 -19.63221741 50.13569641 C-22.08702024 49.83351323 -23.66787871 49.20409157 -25.75 47.875 C-27.44884404 44.50398137 -28.02444919 42.76741477 -26.90307617 39.12109375 C-26.39236572 38.19425781 -25.88165527 37.26742187 -25.35546875 36.3125 C-24.78876465 35.26964844 -24.22206055 34.22679687 -23.63818359 33.15234375 C-23.01508301 32.07082031 -22.39198242 30.98929688 -21.75 29.875 C-21.13592285 28.80378906 -20.5218457 27.73257813 -19.88916016 26.62890625 C-17.97820986 23.3577599 -16.02788063 20.11369844 -14.0625 16.875 C-13.39927734 15.77027344 -12.73605469 14.66554688 -12.05273438 13.52734375 C-4.52955415 1.05689597 -4.52955415 1.05689597 0 0 Z " fill="#D62518" transform="translate(31.75,7.125)"/>
<path d="M0 0 C2.97 0 5.94 0 9 0 C8.67 5.61 8.34 11.22 8 17 C5.69 17 3.38 17 1 17 C0.16514796 11.26039225 -0.09063407 5.80058027 0 0 Z " fill="#EFE1E0" transform="translate(28,22)"/>
<path d="M0 0 C3.06645446 0.25020406 3.99863198 0.931281 6.16015625 3.17578125 C8.89184475 6.96200248 11.26694688 10.41380713 12.125 15.0625 C11.465 15.0625 10.805 15.0625 10.125 15.0625 C8.32187397 12.55992457 6.71042896 9.96191571 5.07421875 7.34765625 C2.7992071 4.68055842 1.55377123 4.33987048 -1.875 4.0625 C-6.42325507 10.40958263 -10.73502185 16.87011896 -14.85327148 23.50244141 C-17.65889021 27.9544451 -17.65889021 27.9544451 -19.875 29.0625 C-18.21597055 24.50238696 -15.94311892 20.39785082 -13.5625 16.1875 C-13.18416016 15.50558594 -12.80582031 14.82367188 -12.41601562 14.12109375 C-4.94762885 0.85238629 -4.94762885 0.85238629 0 0 Z " fill="#E74B3D" transform="translate(31.875,6.9375)"/>
<path d="M0 0 C1.98 0 3.96 0 6 0 C6 1.65 6 3.3 6 5 C4.02 5 2.04 5 0 5 C0 3.35 0 1.7 0 0 Z " fill="#EBDEDE" transform="translate(29,43)"/>
<path d="M0 0 C0.66 0.99 1.32 1.98 2 3 C-0.64 6.63 -3.28 10.26 -6 14 C-6.33 13.34 -6.66 12.68 -7 12 C-5.56640625 9.1796875 -5.56640625 9.1796875 -3.5625 5.875 C-2.57443359 4.23144531 -2.57443359 4.23144531 -1.56640625 2.5546875 C-1.04949219 1.71164063 -0.53257813 0.86859375 0 0 Z " fill="#DF3B2D" transform="translate(19,22)"/>
<path d="M0 0 C2.61724095 2.36797991 4.32861729 4.89600354 6 8 C6 8.66 6 9.32 6 10 C5.34 10 4.68 10 4 10 C1.1605948 6.32547562 0 4.73113419 0 0 Z " fill="#E43F31" transform="translate(38,12)"/>
<path d="M0 0 C0.75 1.625 0.75 1.625 1 4 C-0.9375 7.25 -0.9375 7.25 -3 10 C-3.75 8.375 -3.75 8.375 -4 6 C-2.0625 2.75 -2.0625 2.75 0 0 Z " fill="#E44436" transform="translate(24,14)"/>
</svg>
