<?xml version="1.0" encoding="UTF-8"?>
<svg version="1.1" xmlns="http://www.w3.org/2000/svg" width="64" height="64">
<path d="M0 0 C4.98895976 4.35544106 7.90836655 9.4605958 9 16 C9.35373116 23.51410733 7.85720751 29.22137101 3 35 C-2.08295433 40.19847602 -7.48475193 42.71983309 -14.70703125 43.16796875 C-22.59902485 42.86994941 -28.21387731 40.04531935 -33.59765625 34.29296875 C-37.67145734 29.03147055 -39.28232308 23.72223243 -38.875 17.0625 C-37.87028801 9.53857723 -35.00616466 3.95320482 -28.9765625 -0.7421875 C-19.77713969 -6.59636565 -8.93113047 -6.31901489 0 0 Z " fill="#32C671" transform="translate(47,13)"/>
<path d="M0 0 C3.78496138 1.51398455 4.0072198 2.0144396 6 6 C-0.27 12.27 -6.54 18.54 -13 25 C-16.72934886 23.13532557 -18.86585213 21.49072216 -21.8125 18.625 C-22.62332031 17.85414062 -23.43414063 17.08328125 -24.26953125 16.2890625 C-26 14 -26 14 -25.88671875 11.8359375 C-25 10 -25 10 -23 8 C-19.21096292 8.25260247 -17.45813407 10.27849443 -15 13 C-10.92623969 11.38989473 -8.23492931 8.46177729 -5.25 5.375 C-4.74339844 4.859375 -4.23679687 4.34375 -3.71484375 3.8125 C-2.47196098 2.54616661 -1.23534724 1.2736856 0 0 Z " fill="#FCFEFD" transform="translate(42,22)"/>
</svg>
